<?xml version="1.0" encoding="UTF-8" standalone="no"?>
<!-- Created with Inkscape (http://www.inkscape.org/) -->

<svg
   width="32"
   height="32"
   viewBox="0 0 8.4666665 8.4666666"
   version="1.1"
   id="svg1"
   inkscape:version="1.4.2 (f4327f4, 2025-05-13)"
   sodipodi:docname="cooler_flood_on.svg"
   xmlns:inkscape="http://www.inkscape.org/namespaces/inkscape"
   xmlns:sodipodi="http://sodipodi.sourceforge.net/DTD/sodipodi-0.dtd"
   xmlns="http://www.w3.org/2000/svg"
   xmlns:svg="http://www.w3.org/2000/svg">
  <sodipodi:namedview
     id="namedview1"
     pagecolor="#ffffff"
     bordercolor="#666666"
     borderopacity="1.0"
     inkscape:showpageshadow="2"
     inkscape:pageopacity="0.0"
     inkscape:pagecheckerboard="0"
     inkscape:deskcolor="#d1d1d1"
     inkscape:document-units="px"
     inkscape:zoom="27.40625"
     inkscape:cx="15.981756"
     inkscape:cy="16"
     inkscape:window-width="1920"
     inkscape:window-height="1057"
     inkscape:window-x="3832"
     inkscape:window-y="-8"
     inkscape:window-maximized="1"
     inkscape:current-layer="layer1" />
  <defs
     id="defs1" />
  <g
     inkscape:label="Layer 1"
     inkscape:groupmode="layer"
     id="layer1">
    <g
       transform="matrix(0.0074719,0,0,0.0074719,2.2543578,4.5935264)"
       id="Layer_1-86-2-5"
       style="display:inline;fill:#00b400;fill-opacity:1">
      <linearGradient
         id="linearGradient6131"
         gradientUnits="userSpaceOnUse"
         x1="27.813499"
         y1="111.8271"
         x2="210.9595"
         y2="240.0674">
        <stop
           offset="0"
           style="stop-color:#D7E1FF"
           id="stop4465-91-2-7" />
        <stop
           offset="0.1917"
           style="stop-color:#D4DEFD"
           id="stop4467-0-5-0" />
        <stop
           offset="0.3573"
           style="stop-color:#C9D4F8"
           id="stop4469-6-2-1" />
        <stop
           offset="0.5132"
           style="stop-color:#B7C3EE"
           id="stop4471-45-1-3" />
        <stop
           offset="0.6632"
           style="stop-color:#9EABE1"
           id="stop4473-2-3-9" />
        <stop
           offset="0.809"
           style="stop-color:#7E8CD0"
           id="stop4475-5-1-1" />
        <stop
           offset="0.9498"
           style="stop-color:#5767BB"
           id="stop4477-38-6-6" />
        <stop
           offset="1"
           style="stop-color:#4758B3"
           id="stop4479-6-3-2" />
      </linearGradient>
      <path
         inkscape:connector-curvature="0"
         d="m 106.117,309.742 c 64.33,-1.896 114.535,-53.378 104.935,-120.58 C 206.479,157.148 181.159,119.634 164.419,90.714 144.492,56.292 124.429,27.628 106.117,0 h -0.001 C 87.803,27.628 67.74,56.292 47.814,90.714 31.073,119.633 5.754,157.148 1.181,189.162 c -9.6,67.202 40.605,118.685 104.936,120.58 z"
         id="path4433-70-4-3"
         style="fill:#00b400;fill-opacity:1" />
    </g>
    <path
       style="display:inline;fill:#00b400;fill-opacity:1;stroke:none;stroke-width:0.264583"
       d="m 4.5652988,1.3396214 c -0.039377,0.00788 -0.097656,0.014176 -0.1291582,0.014176 -0.031502,-0.00157 -0.063004,0.00473 -0.067729,0.012601 -0.00945,0.015751 -0.031502,0.014176 -0.296119,-0.017326 -0.1401842,-0.017326 -0.1559351,-0.015751 -0.1842871,0.00945 -0.044103,0.040953 -0.067729,0.1748362 -0.047253,0.2693423 0.031502,0.1417592 0.055129,0.1496347 0.3449473,0.1086821 0.1149824,-0.017326 0.170111,-0.018901 0.1842868,-0.0063 0.011025,0.00788 0.039378,0.014176 0.064579,0.011026 l 0.044103,-0.00473 v 0.2441407 0.2441408 l -0.066154,0.00473 c -0.059854,0.00473 -0.067729,0.00945 -0.067729,0.042528 0,0.036227 -0.00473,0.037802 -0.1134073,0.042528 l -0.1149824,0.00473 -0.00473,0.066154 c -0.00473,0.059854 -0.00159,0.067729 0.026777,0.067729 0.031502,0 0.033077,0.00945 0.033077,0.1779865 0,0.1527848 -0.00473,0.187437 -0.034652,0.2472908 C 4.0911933,2.968276 4.007713,3.0123786 3.8234262,3.0438807 3.6895426,3.067508 3.5336075,3.1163355 3.462728,3.1604384 3.2737157,3.2722706 3.1319565,3.4030039 3.0232744,3.560514 2.9303435,3.6975478 2.8263868,3.9448388 2.7759834,4.1543274 c -0.028352,0.1165574 -0.026777,0.1260081 0.00945,0.1260081 0.018902,0 0.07718,0.00945 0.1307336,0.02205 0.053554,0.012602 0.1622353,0.033077 0.2394153,0.047253 0.078755,0.014176 0.1575102,0.029927 0.1764115,0.034652 0.029927,0.00788 0.036227,0.00315 0.036227,-0.02205 0,-0.055128 0.078755,-0.2898185 0.1307335,-0.3858999 0.026777,-0.050403 0.088206,-0.1291582 0.1401839,-0.1764114 0.072455,-0.067729 0.105532,-0.08663 0.1622357,-0.096081 0.1149823,-0.015751 0.2220891,0.0063 0.3606982,0.075605 0.2504411,0.1260081 0.3134453,0.143334 0.5056076,0.1449094 0.1685359,0.00159 0.1795616,-0.00159 0.4016508,-0.07718 l 0.2283899,-0.07718 0.4331528,-0.00159 h 0.4331531 l 0.00473,0.1370338 0.00473,0.1370338 0.089781,0.00473 0.089781,0.00473 0.00473,0.1764115 0.00473,0.1779863 H 6.5263016 6.6916871 V 3.3982665 2.3902016 H 6.5263016 6.3609158 v 0.1811367 0.1811366 h -0.094506 -0.092931 l -0.00473,0.1527847 -0.00473,0.1543601 H 5.7671019 5.3717515 L 5.302447,3.0123664 C 5.1969148,2.9399246 5.1449364,2.8170666 5.1354857,2.6233292 l -0.00788,-0.1527848 0.042528,-0.011026 c 0.039378,-0.00945 0.042528,-0.015751 0.037803,-0.075605 L 5.203214,2.3193346 5.0929568,2.311459 C 4.9953008,2.305159 4.9826999,2.300433 4.9826999,2.272081 c 0,-0.025202 -0.012602,-0.033077 -0.07088,-0.039378 l -0.07088,-0.00788 -0.00473,-0.2283898 c -0.00473,-0.2567415 -0.00159,-0.2756428 0.040953,-0.2535913 0.02205,0.011026 0.039378,0.00945 0.061429,-0.0063 0.025202,-0.017326 0.056704,-0.017326 0.2094884,0.00157 0.097656,0.012601 0.1984629,0.022051 0.2252395,0.018901 0.067729,-0.0063 0.107107,-0.067729 0.1165577,-0.1795615 0.0063,-0.075605 0,-0.1055319 -0.029927,-0.1638106 -0.042528,-0.081905 -0.037802,-0.081905 -0.3354967,-0.050403 -0.1197076,0.011026 -0.1779866,0.012601 -0.1921624,0 -0.011025,-0.00945 -0.031502,-0.011026 -0.045678,-0.0063 -0.015751,0.0063 -0.048828,0.00315 -0.075605,-0.00473 -0.08348,-0.025202 -0.171686,-0.029927 -0.2457159,-0.012601 z"
       id="node1-5-3"
       class="node"
       inkscape:connector-curvature="0" />
    <g
       style="display:inline;fill:#a1a1a1;stroke:none"
       transform="matrix(0.0015751,0,0,-0.0015751,2.6107988,5.3281984)"
       id="g8-3-1" />
    <circle
       style="display:inline;fill:none;fill-opacity:1;stroke:#00b400;stroke-width:0.529167;stroke-linecap:square;stroke-miterlimit:4;stroke-dasharray:none;stroke-opacity:1"
       id="path4812-0"
       cx="4.2333331"
       cy="4.2333331"
       r="3.8042445" />
  </g>
</svg>
