<?xml version="1.0" encoding="UTF-8" standalone="no"?>
<!-- Created with Inkscape (http://www.inkscape.org/) -->

<svg
   width="32"
   height="32"
   viewBox="0 0 8.4666665 8.4666666"
   version="1.1"
   id="svg1"
   inkscape:version="1.4.2 (f4327f4, 2025-05-13)"
   sodipodi:docname="cooler_mist_on.svg"
   xmlns:inkscape="http://www.inkscape.org/namespaces/inkscape"
   xmlns:sodipodi="http://sodipodi.sourceforge.net/DTD/sodipodi-0.dtd"
   xmlns="http://www.w3.org/2000/svg"
   xmlns:svg="http://www.w3.org/2000/svg">
  <sodipodi:namedview
     id="namedview1"
     pagecolor="#ffffff"
     bordercolor="#666666"
     borderopacity="1.0"
     inkscape:showpageshadow="2"
     inkscape:pageopacity="0.0"
     inkscape:pagecheckerboard="0"
     inkscape:deskcolor="#d1d1d1"
     inkscape:document-units="px"
     inkscape:zoom="27.40625"
     inkscape:cx="15.981756"
     inkscape:cy="16"
     inkscape:window-width="1920"
     inkscape:window-height="1057"
     inkscape:window-x="3832"
     inkscape:window-y="-8"
     inkscape:window-maximized="1"
     inkscape:current-layer="layer1" />
  <defs
     id="defs1" />
  <g
     inkscape:label="Layer 1"
     inkscape:groupmode="layer"
     id="layer1">
    <g
       transform="matrix(0.26399305,0.27201376,-0.27201376,0.26399305,4.4908435,-4.2311182)"
       id="g4331-8-9"
       style="display:inline;fill:#00b400;fill-opacity:1;stroke:none;stroke-width:0.0627082;stroke-miterlimit:4;stroke-dasharray:none;stroke-opacity:1">
      <path
         sodipodi:nodetypes="ccccccc"
         inkscape:connector-curvature="0"
         id="path4297-7-9"
         d="m 15,8 h 2 l 0.55,4.2 0.05,1.8 h -3.2 l 0.05,-1.8 z"
         style="fill:#00b400;fill-opacity:1;fill-rule:evenodd;stroke:none;stroke-width:0.0627082;stroke-linecap:butt;stroke-linejoin:miter;stroke-miterlimit:4;stroke-dasharray:none;stroke-opacity:1" />
      <path
         sodipodi:nodetypes="ccccc"
         inkscape:connector-curvature="0"
         id="path4297-9-4-6"
         d="m 14.2,14.2 h 3.6 v 0.4 h -3.6 z"
         style="fill:#00b400;fill-opacity:1;fill-rule:evenodd;stroke:none;stroke-width:0.0627082;stroke-linecap:butt;stroke-linejoin:miter;stroke-miterlimit:4;stroke-dasharray:none;stroke-opacity:1" />
      <path
         sodipodi:nodetypes="ccccc"
         inkscape:connector-curvature="0"
         id="path4297-9-5-7-70"
         d="m 14.4,14.8 h 3.2 l -0.1,0.8 h -3 z"
         style="fill:#00b400;fill-opacity:1;fill-rule:evenodd;stroke:none;stroke-width:0.0627082;stroke-linecap:butt;stroke-linejoin:miter;stroke-miterlimit:4;stroke-dasharray:none;stroke-opacity:1" />
    </g>
    <g
       id="layer1-8-01"
       style="display:inline;fill:#008000;fill-opacity:0.127551;fill-rule:nonzero;stroke:#000000"
       transform="matrix(0.00980167,0,0,0.00980167,0.10554779,3.2467404)">
      <path
         stroke-miterlimit="4"
         id="path4952-6"
         d="m 373.88431,91.942383 c -20.8053,-5.744141 -41.86017,0.829483 -56.39542,15.110227 -7.59402,-9.405279 -17.87683,-16.664244 -30.21057,-20.069227 -31.74223,-8.763496 -64.44238,10.689285 -72.94774,43.395797 -0.62498,2.40326 -0.78953,4.82002 -1.12472,7.22371 -28.58542,-3.06172 -55.93718,15.37709 -63.61089,44.88605 -7.60361,29.23897 6.74478,59.13675 32.53369,71.42956 -1.40182,3.13216 -2.70888,6.35903 -3.60435,9.80202 -8.50522,32.70648 10.39299,66.32757 42.13528,75.09106 15.54746,4.29306 31.25946,1.77219 44.30226,-5.71087 7.18829,15.84509 20.59039,28.59796 38.25778,33.47537 25.20752,6.95966 50.78681,-4.065 64.5965,-25.19571 5.59393,4.08044 11.81186,7.45575 18.81601,9.38983 31.74222,8.76349 64.37204,-10.70904 72.87741,-43.41556 4.27695,-16.44647 1.63049,-33.09014 -6.09009,-46.73071 7.64087,-7.5072 13.6218,-17.01665 16.55225,-28.28555 8.50534,-32.7069 -10.39291,-66.32796 -42.13516,-75.09148 -3.34143,-0.9221 -6.68854,-1.44157 -10.02118,-1.75674 1.97522,-28.72147 -15.93994,-55.819635 -43.93106,-63.547777 z"
         inkscape:connector-curvature="0"
         style="fill:#008000;fill-opacity:0.127551;fill-rule:nonzero;stroke:#000000;stroke-width:6;stroke-linejoin:round;stroke-miterlimit:4;stroke-dashoffset:0" />
    </g>
    <g
       transform="matrix(0.00204372,0,0,0.00204372,1.9318843,4.8599198)"
       id="Layer_1-48"
       style="display:inline;fill:#00b400;fill-opacity:1">
      <linearGradient
         id="linearGradient4792"
         gradientUnits="userSpaceOnUse"
         x1="27.813499"
         y1="111.8271"
         x2="210.9595"
         y2="240.0674">
        <stop
           offset="0"
           style="stop-color:#D7E1FF"
           id="stop4465-10" />
        <stop
           offset="0.1917"
           style="stop-color:#D4DEFD"
           id="stop4467-9" />
        <stop
           offset="0.3573"
           style="stop-color:#C9D4F8"
           id="stop4469-60" />
        <stop
           offset="0.5132"
           style="stop-color:#B7C3EE"
           id="stop4471-9" />
        <stop
           offset="0.6632"
           style="stop-color:#9EABE1"
           id="stop4473-28" />
        <stop
           offset="0.809"
           style="stop-color:#7E8CD0"
           id="stop4475-4" />
        <stop
           offset="0.9498"
           style="stop-color:#5767BB"
           id="stop4477-39" />
        <stop
           offset="1"
           style="stop-color:#4758B3"
           id="stop4479-65" />
      </linearGradient>
      <path
         inkscape:connector-curvature="0"
         d="m 106.117,309.742 c 64.33,-1.896 114.535,-53.378 104.935,-120.58 C 206.479,157.148 181.159,119.634 164.419,90.714 144.492,56.292 124.429,27.628 106.117,0 h -0.001 C 87.803,27.628 67.74,56.292 47.814,90.714 31.073,119.633 5.754,157.148 1.181,189.162 c -9.6,67.202 40.605,118.685 104.936,120.58 z"
         id="path4433-51"
         style="fill:#00b400;fill-opacity:1" />
    </g>
    <g
       transform="matrix(0.00204372,0,0,0.00204372,2.5095131,4.3718739)"
       id="Layer_1-8-2"
       style="display:inline;fill:#00b400;fill-opacity:1">
      <linearGradient
         id="linearGradient4804"
         gradientUnits="userSpaceOnUse"
         x1="27.813499"
         y1="111.8271"
         x2="210.9595"
         y2="240.0674">
        <stop
           offset="0"
           style="stop-color:#D7E1FF"
           id="stop4465-8-78" />
        <stop
           offset="0.1917"
           style="stop-color:#D4DEFD"
           id="stop4467-5-5" />
        <stop
           offset="0.3573"
           style="stop-color:#C9D4F8"
           id="stop4469-1-2" />
        <stop
           offset="0.5132"
           style="stop-color:#B7C3EE"
           id="stop4471-6-3" />
        <stop
           offset="0.6632"
           style="stop-color:#9EABE1"
           id="stop4473-6-7" />
        <stop
           offset="0.809"
           style="stop-color:#7E8CD0"
           id="stop4475-2-7" />
        <stop
           offset="0.9498"
           style="stop-color:#5767BB"
           id="stop4477-2-8" />
        <stop
           offset="1"
           style="stop-color:#4758B3"
           id="stop4479-9-1" />
      </linearGradient>
      <path
         inkscape:connector-curvature="0"
         d="m 106.117,309.742 c 64.33,-1.896 114.535,-53.378 104.935,-120.58 C 206.479,157.148 181.159,119.634 164.419,90.714 144.492,56.292 124.429,27.628 106.117,0 h -0.001 C 87.803,27.628 67.74,56.292 47.814,90.714 31.073,119.633 5.754,157.148 1.181,189.162 c -9.6,67.202 40.605,118.685 104.936,120.58 z"
         id="path4433-2-8"
         style="fill:#00b400;fill-opacity:1" />
    </g>
    <g
       transform="matrix(0.00204372,0,0,0.00204372,2.9519552,5.0182851)"
       id="Layer_1-3-2"
       style="display:inline;fill:#00b400;fill-opacity:1">
      <linearGradient
         id="linearGradient4816"
         gradientUnits="userSpaceOnUse"
         x1="27.813499"
         y1="111.8271"
         x2="210.9595"
         y2="240.0674">
        <stop
           offset="0"
           style="stop-color:#D7E1FF"
           id="stop4465-7-0" />
        <stop
           offset="0.1917"
           style="stop-color:#D4DEFD"
           id="stop4467-1-5" />
        <stop
           offset="0.3573"
           style="stop-color:#C9D4F8"
           id="stop4469-0-1" />
        <stop
           offset="0.5132"
           style="stop-color:#B7C3EE"
           id="stop4471-4-8" />
        <stop
           offset="0.6632"
           style="stop-color:#9EABE1"
           id="stop4473-0-2" />
        <stop
           offset="0.809"
           style="stop-color:#7E8CD0"
           id="stop4475-7-7" />
        <stop
           offset="0.9498"
           style="stop-color:#5767BB"
           id="stop4477-3-3" />
        <stop
           offset="1"
           style="stop-color:#4758B3"
           id="stop4479-8-2" />
      </linearGradient>
      <path
         inkscape:connector-curvature="0"
         d="m 106.117,309.742 c 64.33,-1.896 114.535,-53.378 104.935,-120.58 C 206.479,157.148 181.159,119.634 164.419,90.714 144.492,56.292 124.429,27.628 106.117,0 h -0.001 C 87.803,27.628 67.74,56.292 47.814,90.714 31.073,119.633 5.754,157.148 1.181,189.162 c -9.6,67.202 40.605,118.685 104.936,120.58 z"
         id="path4433-7-8"
         style="fill:#00b400;fill-opacity:1" />
    </g>
    <g
       transform="matrix(0.00204372,0,0,0.00204372,3.4041902,4.4374577)"
       id="Layer_1-0-9"
       style="display:inline;fill:#00b400;fill-opacity:1">
      <linearGradient
         id="linearGradient4828"
         gradientUnits="userSpaceOnUse"
         x1="27.813499"
         y1="111.8271"
         x2="210.9595"
         y2="240.0674">
        <stop
           offset="0"
           style="stop-color:#D7E1FF"
           id="stop4465-1-59" />
        <stop
           offset="0.1917"
           style="stop-color:#D4DEFD"
           id="stop4467-8-1" />
        <stop
           offset="0.3573"
           style="stop-color:#C9D4F8"
           id="stop4469-7-86" />
        <stop
           offset="0.5132"
           style="stop-color:#B7C3EE"
           id="stop4471-0-9" />
        <stop
           offset="0.6632"
           style="stop-color:#9EABE1"
           id="stop4473-8-4" />
        <stop
           offset="0.809"
           style="stop-color:#7E8CD0"
           id="stop4475-77-3" />
        <stop
           offset="0.9498"
           style="stop-color:#5767BB"
           id="stop4477-7-0" />
        <stop
           offset="1"
           style="stop-color:#4758B3"
           id="stop4479-94-0" />
      </linearGradient>
      <path
         inkscape:connector-curvature="0"
         d="m 106.117,309.742 c 64.33,-1.896 114.535,-53.378 104.935,-120.58 C 206.479,157.148 181.159,119.634 164.419,90.714 144.492,56.292 124.429,27.628 106.117,0 h -0.001 C 87.803,27.628 67.74,56.292 47.814,90.714 31.073,119.633 5.754,157.148 1.181,189.162 c -9.6,67.202 40.605,118.685 104.936,120.58 z"
         id="path4433-5-1"
         style="fill:#00b400;fill-opacity:1" />
    </g>
    <g
       transform="matrix(0.00204372,0,0,0.00204372,3.9306357,5.0357076)"
       id="Layer_1-5-9"
       style="display:inline;fill:#00b400;fill-opacity:1">
      <linearGradient
         id="linearGradient4840"
         gradientUnits="userSpaceOnUse"
         x1="27.813499"
         y1="111.8271"
         x2="210.9595"
         y2="240.0674">
        <stop
           offset="0"
           style="stop-color:#D7E1FF"
           id="stop4465-2-4" />
        <stop
           offset="0.1917"
           style="stop-color:#D4DEFD"
           id="stop4467-7-2" />
        <stop
           offset="0.3573"
           style="stop-color:#C9D4F8"
           id="stop4469-8-9" />
        <stop
           offset="0.5132"
           style="stop-color:#B7C3EE"
           id="stop4471-2-81" />
        <stop
           offset="0.6632"
           style="stop-color:#9EABE1"
           id="stop4473-4-9" />
        <stop
           offset="0.809"
           style="stop-color:#7E8CD0"
           id="stop4475-9-9" />
        <stop
           offset="0.9498"
           style="stop-color:#5767BB"
           id="stop4477-0-66" />
        <stop
           offset="1"
           style="stop-color:#4758B3"
           id="stop4479-7-5" />
      </linearGradient>
      <path
         inkscape:connector-curvature="0"
         d="m 106.117,309.742 c 64.33,-1.896 114.535,-53.378 104.935,-120.58 C 206.479,157.148 181.159,119.634 164.419,90.714 144.492,56.292 124.429,27.628 106.117,0 h -0.001 C 87.803,27.628 67.74,56.292 47.814,90.714 31.073,119.633 5.754,157.148 1.181,189.162 c -9.6,67.202 40.605,118.685 104.936,120.58 z"
         id="path4433-0-1"
         style="fill:#00b400;fill-opacity:1" />
    </g>
    <g
       transform="matrix(0.00204372,0,0,0.00204372,3.6551539,5.7543366)"
       id="Layer_1-4-79"
       style="display:inline;fill:#00b400;fill-opacity:1">
      <linearGradient
         id="linearGradient4852"
         gradientUnits="userSpaceOnUse"
         x1="27.813499"
         y1="111.8271"
         x2="210.9595"
         y2="240.0674">
        <stop
           offset="0"
           style="stop-color:#D7E1FF"
           id="stop4465-9-4" />
        <stop
           offset="0.1917"
           style="stop-color:#D4DEFD"
           id="stop4467-18-7" />
        <stop
           offset="0.3573"
           style="stop-color:#C9D4F8"
           id="stop4469-5-5" />
        <stop
           offset="0.5132"
           style="stop-color:#B7C3EE"
           id="stop4471-3-26" />
        <stop
           offset="0.6632"
           style="stop-color:#9EABE1"
           id="stop4473-05-9" />
        <stop
           offset="0.809"
           style="stop-color:#7E8CD0"
           id="stop4475-8-10" />
        <stop
           offset="0.9498"
           style="stop-color:#5767BB"
           id="stop4477-9-66" />
        <stop
           offset="1"
           style="stop-color:#4758B3"
           id="stop4479-1-53" />
      </linearGradient>
      <path
         inkscape:connector-curvature="0"
         d="m 106.117,309.742 c 64.33,-1.896 114.535,-53.378 104.935,-120.58 C 206.479,157.148 181.159,119.634 164.419,90.714 144.492,56.292 124.429,27.628 106.117,0 h -0.001 C 87.803,27.628 67.74,56.292 47.814,90.714 31.073,119.633 5.754,157.148 1.181,189.162 c -9.6,67.202 40.605,118.685 104.936,120.58 z"
         id="path4433-4-4"
         style="fill:#00b400;fill-opacity:1" />
    </g>
    <g
       transform="matrix(0.00204372,0,0,0.00204372,2.3024337,5.6493875)"
       id="Layer_1-35-6"
       style="display:inline;fill:#00b400;fill-opacity:1">
      <linearGradient
         id="linearGradient4864"
         gradientUnits="userSpaceOnUse"
         x1="27.813499"
         y1="111.8271"
         x2="210.9595"
         y2="240.0674">
        <stop
           offset="0"
           style="stop-color:#D7E1FF"
           id="stop4465-17-9" />
        <stop
           offset="0.1917"
           style="stop-color:#D4DEFD"
           id="stop4467-53-2" />
        <stop
           offset="0.3573"
           style="stop-color:#C9D4F8"
           id="stop4469-85-9" />
        <stop
           offset="0.5132"
           style="stop-color:#B7C3EE"
           id="stop4471-7-9" />
        <stop
           offset="0.6632"
           style="stop-color:#9EABE1"
           id="stop4473-67-5" />
        <stop
           offset="0.809"
           style="stop-color:#7E8CD0"
           id="stop4475-87-7" />
        <stop
           offset="0.9498"
           style="stop-color:#5767BB"
           id="stop4477-5-2" />
        <stop
           offset="1"
           style="stop-color:#4758B3"
           id="stop4479-3-43" />
      </linearGradient>
      <path
         inkscape:connector-curvature="0"
         d="m 106.117,309.742 c 64.33,-1.896 114.535,-53.378 104.935,-120.58 C 206.479,157.148 181.159,119.634 164.419,90.714 144.492,56.292 124.429,27.628 106.117,0 h -0.001 C 87.803,27.628 67.74,56.292 47.814,90.714 31.073,119.633 5.754,157.148 1.181,189.162 c -9.6,67.202 40.605,118.685 104.936,120.58 z"
         id="path4433-07-9"
         style="fill:#00b400;fill-opacity:1" />
    </g>
    <g
       transform="matrix(0.00204372,0,0,0.00204372,2.9850995,5.8182192)"
       id="Layer_1-7-1"
       style="display:inline;fill:#00b400;fill-opacity:1">
      <linearGradient
         id="linearGradient4876"
         gradientUnits="userSpaceOnUse"
         x1="27.813499"
         y1="111.8271"
         x2="210.9595"
         y2="240.0674">
        <stop
           offset="0"
           style="stop-color:#D7E1FF"
           id="stop4465-3-2" />
        <stop
           offset="0.1917"
           style="stop-color:#D4DEFD"
           id="stop4467-4-72" />
        <stop
           offset="0.3573"
           style="stop-color:#C9D4F8"
           id="stop4469-59-4" />
        <stop
           offset="0.5132"
           style="stop-color:#B7C3EE"
           id="stop4471-48-5" />
        <stop
           offset="0.6632"
           style="stop-color:#9EABE1"
           id="stop4473-5-3" />
        <stop
           offset="0.809"
           style="stop-color:#7E8CD0"
           id="stop4475-3-9" />
        <stop
           offset="0.9498"
           style="stop-color:#5767BB"
           id="stop4477-09-0" />
        <stop
           offset="1"
           style="stop-color:#4758B3"
           id="stop4479-37-2" />
      </linearGradient>
      <path
         inkscape:connector-curvature="0"
         d="m 106.117,309.742 c 64.33,-1.896 114.535,-53.378 104.935,-120.58 C 206.479,157.148 181.159,119.634 164.419,90.714 144.492,56.292 124.429,27.628 106.117,0 h -0.001 C 87.803,27.628 67.74,56.292 47.814,90.714 31.073,119.633 5.754,157.148 1.181,189.162 c -9.6,67.202 40.605,118.685 104.936,120.58 z"
         id="path4433-9-6"
         style="fill:#00b400;fill-opacity:1" />
    </g>
    <circle
       style="display:inline;fill:none;fill-opacity:1;stroke:#00b400;stroke-width:0.529167;stroke-linecap:square;stroke-miterlimit:4;stroke-dasharray:none;stroke-opacity:1"
       id="path4812-0-5"
       cx="4.2333331"
       cy="4.2333331"
       r="3.8042445" />
  </g>
</svg>
